<svg xmlns="http://www.w3.org/2000/svg" xmlns:xlink="http://www.w3.org/1999/xlink" width="600" height="400" viewBox="0 0 2400 1600">
<defs>
  <clipPath id="clip590">
    <rect x="0" y="0" width="2400" height="1600"></rect>
  </clipPath>
</defs>
<path clip-path="url(#clip590)" d="M0 1600 L2400 1600 L2400 0 L0 0  Z" fill="#ffffff" fill-rule="evenodd" fill-opacity="1"></path>
<defs>
  <clipPath id="clip591">
    <rect x="480" y="0" width="1681" height="1600"></rect>
  </clipPath>
</defs>
<path clip-path="url(#clip590)" d="M202.227 1423.18 L2352.76 1423.18 L2352.76 123.472 L202.227 123.472  Z" fill="#ffffff" fill-rule="evenodd" fill-opacity="1"></path>
<defs>
  <clipPath id="clip592">
    <rect x="202" y="123" width="2152" height="1301"></rect>
  </clipPath>
</defs>
<polyline clip-path="url(#clip592)" style="stroke:#000000; stroke-linecap:round; stroke-linejoin:round; stroke-width:2; stroke-opacity:0.1; fill:none" points="488.514,1423.18 488.514,123.472 "></polyline>
<polyline clip-path="url(#clip592)" style="stroke:#000000; stroke-linecap:round; stroke-linejoin:round; stroke-width:2; stroke-opacity:0.1; fill:none" points="1277.49,1423.18 1277.49,123.472 "></polyline>
<polyline clip-path="url(#clip592)" style="stroke:#000000; stroke-linecap:round; stroke-linejoin:round; stroke-width:2; stroke-opacity:0.1; fill:none" points="2066.47,1423.18 2066.47,123.472 "></polyline>
<polyline clip-path="url(#clip590)" style="stroke:#000000; stroke-linecap:round; stroke-linejoin:round; stroke-width:4; stroke-opacity:1; fill:none" points="202.227,1423.18 2352.76,1423.18 "></polyline>
<polyline clip-path="url(#clip590)" style="stroke:#000000; stroke-linecap:round; stroke-linejoin:round; stroke-width:4; stroke-opacity:1; fill:none" points="488.514,1423.18 488.514,1404.28 "></polyline>
<polyline clip-path="url(#clip590)" style="stroke:#000000; stroke-linecap:round; stroke-linejoin:round; stroke-width:4; stroke-opacity:1; fill:none" points="1277.49,1423.18 1277.49,1404.28 "></polyline>
<polyline clip-path="url(#clip590)" style="stroke:#000000; stroke-linecap:round; stroke-linejoin:round; stroke-width:4; stroke-opacity:1; fill:none" points="2066.47,1423.18 2066.47,1404.28 "></polyline>
<path clip-path="url(#clip590)" d="M415.586 1460.65 L415.586 1464.63 Q413.78 1463.64 411.952 1463.15 Q410.146 1462.64 408.294 1462.64 Q404.151 1462.64 401.859 1465.28 Q399.567 1467.89 399.567 1472.64 Q399.567 1477.39 401.859 1480.02 Q404.151 1482.64 408.294 1482.64 Q410.146 1482.64 411.952 1482.15 Q413.78 1481.64 415.586 1480.65 L415.586 1484.58 Q413.804 1485.42 411.882 1485.83 Q409.984 1486.25 407.831 1486.25 Q401.975 1486.25 398.526 1482.57 Q395.077 1478.89 395.077 1472.64 Q395.077 1466.3 398.549 1462.66 Q402.044 1459.03 408.109 1459.03 Q410.077 1459.03 411.952 1459.45 Q413.827 1459.84 415.586 1460.65 Z" fill="#000000" fill-rule="nonzero" fill-opacity="1"></path><path clip-path="url(#clip590)" d="M433.04 1462.64 Q429.614 1462.64 427.623 1465.33 Q425.632 1467.99 425.632 1472.64 Q425.632 1477.29 427.6 1479.98 Q429.59 1482.64 433.04 1482.64 Q436.442 1482.64 438.433 1479.95 Q440.424 1477.27 440.424 1472.64 Q440.424 1468.03 438.433 1465.35 Q436.442 1462.64 433.04 1462.64 M433.04 1459.03 Q438.595 1459.03 441.766 1462.64 Q444.938 1466.25 444.938 1472.64 Q444.938 1479.01 441.766 1482.64 Q438.595 1486.25 433.04 1486.25 Q427.461 1486.25 424.29 1482.64 Q421.141 1479.01 421.141 1472.64 Q421.141 1466.25 424.29 1462.64 Q427.461 1459.03 433.04 1459.03 Z" fill="#000000" fill-rule="nonzero" fill-opacity="1"></path><path clip-path="url(#clip590)" d="M469.058 1472.32 Q469.058 1467.69 467.137 1465.14 Q465.238 1462.59 461.789 1462.59 Q458.363 1462.59 456.442 1465.14 Q454.544 1467.69 454.544 1472.32 Q454.544 1476.92 456.442 1479.47 Q458.363 1482.02 461.789 1482.02 Q465.238 1482.02 467.137 1479.47 Q469.058 1476.92 469.058 1472.32 M473.317 1482.36 Q473.317 1488.98 470.377 1492.2 Q467.437 1495.44 461.373 1495.44 Q459.127 1495.44 457.137 1495.09 Q455.146 1494.77 453.271 1494.08 L453.271 1489.93 Q455.146 1490.95 456.975 1491.44 Q458.803 1491.92 460.701 1491.92 Q464.891 1491.92 466.975 1489.72 Q469.058 1487.55 469.058 1483.13 L469.058 1481.02 Q467.738 1483.31 465.678 1484.45 Q463.618 1485.58 460.748 1485.58 Q455.979 1485.58 453.063 1481.95 Q450.146 1478.31 450.146 1472.32 Q450.146 1466.3 453.063 1462.66 Q455.979 1459.03 460.748 1459.03 Q463.618 1459.03 465.678 1460.16 Q467.738 1461.3 469.058 1463.59 L469.058 1459.65 L473.317 1459.65 L473.317 1482.36 Z" fill="#000000" fill-rule="nonzero" fill-opacity="1"></path><path clip-path="url(#clip590)" d="M503.641 1469.93 L503.641 1485.58 L499.382 1485.58 L499.382 1470.07 Q499.382 1466.39 497.947 1464.56 Q496.511 1462.73 493.641 1462.73 Q490.192 1462.73 488.201 1464.93 Q486.211 1467.13 486.211 1470.93 L486.211 1485.58 L481.928 1485.58 L481.928 1459.65 L486.211 1459.65 L486.211 1463.68 Q487.738 1461.34 489.798 1460.19 Q491.882 1459.03 494.59 1459.03 Q499.058 1459.03 501.349 1461.81 Q503.641 1464.56 503.641 1469.93 Z" fill="#000000" fill-rule="nonzero" fill-opacity="1"></path><path clip-path="url(#clip590)" d="M523.919 1472.55 Q518.757 1472.55 516.766 1473.73 Q514.775 1474.91 514.775 1477.76 Q514.775 1480.02 516.257 1481.37 Q517.761 1482.69 520.331 1482.69 Q523.872 1482.69 526.002 1480.19 Q528.155 1477.66 528.155 1473.5 L528.155 1472.55 L523.919 1472.55 M532.414 1470.79 L532.414 1485.58 L528.155 1485.58 L528.155 1481.64 Q526.696 1484.01 524.521 1485.14 Q522.345 1486.25 519.196 1486.25 Q515.215 1486.25 512.854 1484.03 Q510.516 1481.78 510.516 1478.03 Q510.516 1473.66 513.433 1471.44 Q516.372 1469.21 522.183 1469.21 L528.155 1469.21 L528.155 1468.8 Q528.155 1465.86 526.21 1464.26 Q524.289 1462.64 520.794 1462.64 Q518.571 1462.64 516.465 1463.17 Q514.359 1463.7 512.414 1464.77 L512.414 1460.83 Q514.752 1459.93 516.951 1459.49 Q519.15 1459.03 521.233 1459.03 Q526.858 1459.03 529.636 1461.95 Q532.414 1464.86 532.414 1470.79 Z" fill="#000000" fill-rule="nonzero" fill-opacity="1"></path><path clip-path="url(#clip590)" d="M545.4 1452.29 L545.4 1459.65 L554.173 1459.65 L554.173 1462.96 L545.4 1462.96 L545.4 1477.04 Q545.4 1480.21 546.256 1481.11 Q547.136 1482.02 549.798 1482.02 L554.173 1482.02 L554.173 1485.58 L549.798 1485.58 Q544.868 1485.58 542.993 1483.75 Q541.118 1481.9 541.118 1477.04 L541.118 1462.96 L537.993 1462.96 L537.993 1459.65 L541.118 1459.65 L541.118 1452.29 L545.4 1452.29 Z" fill="#000000" fill-rule="nonzero" fill-opacity="1"></path><path clip-path="url(#clip590)" d="M581.951 1471.55 L581.951 1473.64 L562.368 1473.64 Q562.645 1478.03 565.006 1480.35 Q567.391 1482.64 571.627 1482.64 Q574.08 1482.64 576.372 1482.04 Q578.687 1481.44 580.955 1480.23 L580.955 1484.26 Q578.664 1485.23 576.256 1485.74 Q573.849 1486.25 571.372 1486.25 Q565.168 1486.25 561.534 1482.64 Q557.923 1479.03 557.923 1472.87 Q557.923 1466.51 561.349 1462.78 Q564.798 1459.03 570.631 1459.03 Q575.863 1459.03 578.895 1462.41 Q581.951 1465.77 581.951 1471.55 M577.692 1470.3 Q577.645 1466.81 575.724 1464.72 Q573.826 1462.64 570.678 1462.64 Q567.113 1462.64 564.96 1464.65 Q562.83 1466.67 562.506 1470.33 L577.692 1470.3 Z" fill="#000000" fill-rule="nonzero" fill-opacity="1"></path><path clip-path="url(#clip590)" d="M1184.55 1460.65 L1184.55 1464.63 Q1182.75 1463.64 1180.92 1463.15 Q1179.11 1462.64 1177.26 1462.64 Q1173.12 1462.64 1170.83 1465.28 Q1168.53 1467.89 1168.53 1472.64 Q1168.53 1477.39 1170.83 1480.02 Q1173.12 1482.64 1177.26 1482.64 Q1179.11 1482.64 1180.92 1482.15 Q1182.75 1481.64 1184.55 1480.65 L1184.55 1484.58 Q1182.77 1485.42 1180.85 1485.83 Q1178.95 1486.25 1176.8 1486.25 Q1170.94 1486.25 1167.49 1482.57 Q1164.04 1478.89 1164.04 1472.64 Q1164.04 1466.3 1167.52 1462.66 Q1171.01 1459.03 1177.08 1459.03 Q1179.04 1459.03 1180.92 1459.45 Q1182.79 1459.84 1184.55 1460.65 Z" fill="#000000" fill-rule="nonzero" fill-opacity="1"></path><path clip-path="url(#clip590)" d="M1202.01 1462.64 Q1198.58 1462.64 1196.59 1465.33 Q1194.6 1467.99 1194.6 1472.64 Q1194.6 1477.29 1196.57 1479.98 Q1198.56 1482.64 1202.01 1482.64 Q1205.41 1482.64 1207.4 1479.95 Q1209.39 1477.27 1209.39 1472.64 Q1209.39 1468.03 1207.4 1465.35 Q1205.41 1462.64 1202.01 1462.64 M1202.01 1459.03 Q1207.56 1459.03 1210.73 1462.64 Q1213.9 1466.25 1213.9 1472.64 Q1213.9 1479.01 1210.73 1482.64 Q1207.56 1486.25 1202.01 1486.25 Q1196.43 1486.25 1193.26 1482.64 Q1190.11 1479.01 1190.11 1472.64 Q1190.11 1466.25 1193.26 1462.64 Q1196.43 1459.03 1202.01 1459.03 Z" fill="#000000" fill-rule="nonzero" fill-opacity="1"></path><path clip-path="url(#clip590)" d="M1241.15 1464.63 Q1242.75 1461.76 1244.97 1460.39 Q1247.19 1459.03 1250.2 1459.03 Q1254.25 1459.03 1256.45 1461.88 Q1258.65 1464.7 1258.65 1469.93 L1258.65 1485.58 L1254.37 1485.58 L1254.37 1470.07 Q1254.37 1466.34 1253.05 1464.54 Q1251.73 1462.73 1249.02 1462.73 Q1245.71 1462.73 1243.79 1464.93 Q1241.87 1467.13 1241.87 1470.93 L1241.87 1485.58 L1237.58 1485.58 L1237.58 1470.07 Q1237.58 1466.32 1236.27 1464.54 Q1234.95 1462.73 1232.19 1462.73 Q1228.93 1462.73 1227.01 1464.95 Q1225.08 1467.15 1225.08 1470.93 L1225.08 1485.58 L1220.8 1485.58 L1220.8 1459.65 L1225.08 1459.65 L1225.08 1463.68 Q1226.54 1461.3 1228.58 1460.16 Q1230.62 1459.03 1233.42 1459.03 Q1236.24 1459.03 1238.21 1460.46 Q1240.2 1461.9 1241.15 1464.63 Z" fill="#000000" fill-rule="nonzero" fill-opacity="1"></path><path clip-path="url(#clip590)" d="M1285.76 1472.64 Q1285.76 1467.94 1283.81 1465.28 Q1281.89 1462.59 1278.51 1462.59 Q1275.13 1462.59 1273.19 1465.28 Q1271.26 1467.94 1271.26 1472.64 Q1271.26 1477.34 1273.19 1480.02 Q1275.13 1482.69 1278.51 1482.69 Q1281.89 1482.69 1283.81 1480.02 Q1285.76 1477.34 1285.76 1472.64 M1271.26 1463.59 Q1272.61 1461.27 1274.64 1460.16 Q1276.7 1459.03 1279.55 1459.03 Q1284.27 1459.03 1287.21 1462.78 Q1290.18 1466.53 1290.18 1472.64 Q1290.18 1478.75 1287.21 1482.5 Q1284.27 1486.25 1279.55 1486.25 Q1276.7 1486.25 1274.64 1485.14 Q1272.61 1484.01 1271.26 1481.69 L1271.26 1485.58 L1266.98 1485.58 L1266.98 1449.56 L1271.26 1449.56 L1271.26 1463.59 Z" fill="#000000" fill-rule="nonzero" fill-opacity="1"></path><path clip-path="url(#clip590)" d="M1297.24 1459.65 L1301.5 1459.65 L1301.5 1485.58 L1297.24 1485.58 L1297.24 1459.65 M1297.24 1449.56 L1301.5 1449.56 L1301.5 1454.96 L1297.24 1454.96 L1297.24 1449.56 Z" fill="#000000" fill-rule="nonzero" fill-opacity="1"></path><path clip-path="url(#clip590)" d="M1331.96 1469.93 L1331.96 1485.58 L1327.7 1485.58 L1327.7 1470.07 Q1327.7 1466.39 1326.26 1464.56 Q1324.83 1462.73 1321.96 1462.73 Q1318.51 1462.73 1316.52 1464.93 Q1314.53 1467.13 1314.53 1470.93 L1314.53 1485.58 L1310.25 1485.58 L1310.25 1459.65 L1314.53 1459.65 L1314.53 1463.68 Q1316.06 1461.34 1318.12 1460.19 Q1320.2 1459.03 1322.91 1459.03 Q1327.38 1459.03 1329.67 1461.81 Q1331.96 1464.56 1331.96 1469.93 Z" fill="#000000" fill-rule="nonzero" fill-opacity="1"></path><path clip-path="url(#clip590)" d="M1362.63 1471.55 L1362.63 1473.64 L1343.05 1473.64 Q1343.32 1478.03 1345.69 1480.35 Q1348.07 1482.64 1352.31 1482.64 Q1354.76 1482.64 1357.05 1482.04 Q1359.37 1481.44 1361.63 1480.23 L1361.63 1484.26 Q1359.34 1485.23 1356.94 1485.74 Q1354.53 1486.25 1352.05 1486.25 Q1345.85 1486.25 1342.21 1482.64 Q1338.6 1479.03 1338.6 1472.87 Q1338.6 1466.51 1342.03 1462.78 Q1345.48 1459.03 1351.31 1459.03 Q1356.54 1459.03 1359.57 1462.41 Q1362.63 1465.77 1362.63 1471.55 M1358.37 1470.3 Q1358.32 1466.81 1356.4 1464.72 Q1354.51 1462.64 1351.36 1462.64 Q1347.79 1462.64 1345.64 1464.65 Q1343.51 1466.67 1343.19 1470.33 L1358.37 1470.3 Z" fill="#000000" fill-rule="nonzero" fill-opacity="1"></path><path clip-path="url(#clip590)" d="M1386.68 1463.59 L1386.68 1449.56 L1390.94 1449.56 L1390.94 1485.58 L1386.68 1485.58 L1386.68 1481.69 Q1385.34 1484.01 1383.28 1485.14 Q1381.24 1486.25 1378.37 1486.25 Q1373.67 1486.25 1370.71 1482.5 Q1367.77 1478.75 1367.77 1472.64 Q1367.77 1466.53 1370.71 1462.78 Q1373.67 1459.03 1378.37 1459.03 Q1381.24 1459.03 1383.28 1460.16 Q1385.34 1461.27 1386.68 1463.59 M1372.17 1472.64 Q1372.17 1477.34 1374.09 1480.02 Q1376.03 1482.69 1379.41 1482.69 Q1382.79 1482.69 1384.74 1480.02 Q1386.68 1477.34 1386.68 1472.64 Q1386.68 1467.94 1384.74 1465.28 Q1382.79 1462.59 1379.41 1462.59 Q1376.03 1462.59 1374.09 1465.28 Q1372.17 1467.94 1372.17 1472.64 Z" fill="#000000" fill-rule="nonzero" fill-opacity="1"></path><path clip-path="url(#clip590)" d="M1887.23 1460.65 L1887.23 1464.63 Q1885.43 1463.64 1883.6 1463.15 Q1881.79 1462.64 1879.94 1462.64 Q1875.8 1462.64 1873.51 1465.28 Q1871.22 1467.89 1871.22 1472.64 Q1871.22 1477.39 1873.51 1480.02 Q1875.8 1482.64 1879.94 1482.64 Q1881.79 1482.64 1883.6 1482.15 Q1885.43 1481.64 1887.23 1480.65 L1887.23 1484.58 Q1885.45 1485.42 1883.53 1485.83 Q1881.63 1486.25 1879.48 1486.25 Q1873.62 1486.25 1870.17 1482.57 Q1866.73 1478.89 1866.73 1472.64 Q1866.73 1466.3 1870.2 1462.66 Q1873.69 1459.03 1879.76 1459.03 Q1881.73 1459.03 1883.6 1459.45 Q1885.48 1459.84 1887.23 1460.65 Z" fill="#000000" fill-rule="nonzero" fill-opacity="1"></path><path clip-path="url(#clip590)" d="M1904.69 1462.64 Q1901.26 1462.64 1899.27 1465.33 Q1897.28 1467.99 1897.28 1472.64 Q1897.28 1477.29 1899.25 1479.98 Q1901.24 1482.64 1904.69 1482.64 Q1908.09 1482.64 1910.08 1479.95 Q1912.07 1477.27 1912.07 1472.64 Q1912.07 1468.03 1910.08 1465.35 Q1908.09 1462.64 1904.69 1462.64 M1904.69 1459.03 Q1910.24 1459.03 1913.41 1462.64 Q1916.59 1466.25 1916.59 1472.64 Q1916.59 1479.01 1913.41 1482.64 Q1910.24 1486.25 1904.69 1486.25 Q1899.11 1486.25 1895.94 1482.64 Q1892.79 1479.01 1892.79 1472.64 Q1892.79 1466.25 1895.94 1462.64 Q1899.11 1459.03 1904.69 1459.03 Z" fill="#000000" fill-rule="nonzero" fill-opacity="1"></path><path clip-path="url(#clip590)" d="M1938.67 1463.64 Q1937.95 1463.22 1937.1 1463.03 Q1936.26 1462.83 1935.24 1462.83 Q1931.63 1462.83 1929.69 1465.19 Q1927.77 1467.52 1927.77 1471.92 L1927.77 1485.58 L1923.48 1485.58 L1923.48 1459.65 L1927.77 1459.65 L1927.77 1463.68 Q1929.11 1461.32 1931.26 1460.19 Q1933.41 1459.03 1936.49 1459.03 Q1936.93 1459.03 1937.47 1459.1 Q1938 1459.14 1938.65 1459.26 L1938.67 1463.64 Z" fill="#000000" fill-rule="nonzero" fill-opacity="1"></path><path clip-path="url(#clip590)" d="M1957.33 1463.64 Q1956.61 1463.22 1955.75 1463.03 Q1954.92 1462.83 1953.9 1462.83 Q1950.29 1462.83 1948.35 1465.19 Q1946.42 1467.52 1946.42 1471.92 L1946.42 1485.58 L1942.14 1485.58 L1942.14 1459.65 L1946.42 1459.65 L1946.42 1463.68 Q1947.77 1461.32 1949.92 1460.19 Q1952.07 1459.03 1955.15 1459.03 Q1955.59 1459.03 1956.12 1459.1 Q1956.66 1459.14 1957.3 1459.26 L1957.33 1463.64 Z" fill="#000000" fill-rule="nonzero" fill-opacity="1"></path><path clip-path="url(#clip590)" d="M1982.93 1471.55 L1982.93 1473.64 L1963.35 1473.64 Q1963.62 1478.03 1965.98 1480.35 Q1968.37 1482.64 1972.6 1482.64 Q1975.06 1482.64 1977.35 1482.04 Q1979.66 1481.44 1981.93 1480.23 L1981.93 1484.26 Q1979.64 1485.23 1977.23 1485.74 Q1974.83 1486.25 1972.35 1486.25 Q1966.15 1486.25 1962.51 1482.64 Q1958.9 1479.03 1958.9 1472.87 Q1958.9 1466.51 1962.33 1462.78 Q1965.78 1459.03 1971.61 1459.03 Q1976.84 1459.03 1979.87 1462.41 Q1982.93 1465.77 1982.93 1471.55 M1978.67 1470.3 Q1978.62 1466.81 1976.7 1464.72 Q1974.8 1462.64 1971.66 1462.64 Q1968.09 1462.64 1965.94 1464.65 Q1963.81 1466.67 1963.48 1470.33 L1978.67 1470.3 Z" fill="#000000" fill-rule="nonzero" fill-opacity="1"></path><path clip-path="url(#clip590)" d="M2006.45 1460.42 L2006.45 1464.45 Q2004.64 1463.52 2002.7 1463.06 Q2000.75 1462.59 1998.67 1462.59 Q1995.5 1462.59 1993.9 1463.57 Q1992.33 1464.54 1992.33 1466.48 Q1992.33 1467.96 1993.46 1468.82 Q1994.6 1469.65 1998.02 1470.42 L1999.48 1470.74 Q2004.02 1471.71 2005.91 1473.5 Q2007.84 1475.26 2007.84 1478.43 Q2007.84 1482.04 2004.97 1484.14 Q2002.12 1486.25 1997.12 1486.25 Q1995.03 1486.25 1992.77 1485.83 Q1990.52 1485.44 1988.02 1484.63 L1988.02 1480.23 Q1990.38 1481.46 1992.67 1482.08 Q1994.97 1482.69 1997.21 1482.69 Q2000.22 1482.69 2001.84 1481.67 Q2003.46 1480.63 2003.46 1478.75 Q2003.46 1477.02 2002.28 1476.09 Q2001.12 1475.16 1997.16 1474.31 L1995.68 1473.96 Q1991.72 1473.13 1989.97 1471.41 Q1988.21 1469.68 1988.21 1466.67 Q1988.21 1463.01 1990.8 1461.02 Q1993.39 1459.03 1998.16 1459.03 Q2000.52 1459.03 2002.6 1459.38 Q2004.69 1459.72 2006.45 1460.42 Z" fill="#000000" fill-rule="nonzero" fill-opacity="1"></path><path clip-path="url(#clip590)" d="M2018.74 1481.69 L2018.74 1495.44 L2014.46 1495.44 L2014.46 1459.65 L2018.74 1459.65 L2018.74 1463.59 Q2020.08 1461.27 2022.12 1460.16 Q2024.18 1459.03 2027.03 1459.03 Q2031.75 1459.03 2034.69 1462.78 Q2037.65 1466.53 2037.65 1472.64 Q2037.65 1478.75 2034.69 1482.5 Q2031.75 1486.25 2027.03 1486.25 Q2024.18 1486.25 2022.12 1485.14 Q2020.08 1484.01 2018.74 1481.69 M2033.23 1472.64 Q2033.23 1467.94 2031.28 1465.28 Q2029.36 1462.59 2025.98 1462.59 Q2022.6 1462.59 2020.66 1465.28 Q2018.74 1467.94 2018.74 1472.64 Q2018.74 1477.34 2020.66 1480.02 Q2022.6 1482.69 2025.98 1482.69 Q2029.36 1482.69 2031.28 1480.02 Q2033.23 1477.34 2033.23 1472.64 Z" fill="#000000" fill-rule="nonzero" fill-opacity="1"></path><path clip-path="url(#clip590)" d="M2054.76 1462.64 Q2051.33 1462.64 2049.34 1465.33 Q2047.35 1467.99 2047.35 1472.64 Q2047.35 1477.29 2049.32 1479.98 Q2051.31 1482.64 2054.76 1482.64 Q2058.16 1482.64 2060.15 1479.95 Q2062.14 1477.27 2062.14 1472.64 Q2062.14 1468.03 2060.15 1465.35 Q2058.16 1462.64 2054.76 1462.64 M2054.76 1459.03 Q2060.31 1459.03 2063.48 1462.64 Q2066.65 1466.25 2066.65 1472.64 Q2066.65 1479.01 2063.48 1482.64 Q2060.31 1486.25 2054.76 1486.25 Q2049.18 1486.25 2046.01 1482.64 Q2042.86 1479.01 2042.86 1472.64 Q2042.86 1466.25 2046.01 1462.64 Q2049.18 1459.03 2054.76 1459.03 Z" fill="#000000" fill-rule="nonzero" fill-opacity="1"></path><path clip-path="url(#clip590)" d="M2095.27 1469.93 L2095.27 1485.58 L2091.01 1485.58 L2091.01 1470.07 Q2091.01 1466.39 2089.57 1464.56 Q2088.14 1462.73 2085.27 1462.73 Q2081.82 1462.73 2079.83 1464.93 Q2077.84 1467.13 2077.84 1470.93 L2077.84 1485.58 L2073.55 1485.58 L2073.55 1459.65 L2077.84 1459.65 L2077.84 1463.68 Q2079.36 1461.34 2081.42 1460.19 Q2083.51 1459.03 2086.21 1459.03 Q2090.68 1459.03 2092.97 1461.81 Q2095.27 1464.56 2095.27 1469.93 Z" fill="#000000" fill-rule="nonzero" fill-opacity="1"></path><path clip-path="url(#clip590)" d="M2120.82 1463.59 L2120.82 1449.56 L2125.08 1449.56 L2125.08 1485.58 L2120.82 1485.58 L2120.82 1481.69 Q2119.48 1484.01 2117.42 1485.14 Q2115.38 1486.25 2112.51 1486.25 Q2107.81 1486.25 2104.85 1482.5 Q2101.91 1478.75 2101.91 1472.64 Q2101.91 1466.53 2104.85 1462.78 Q2107.81 1459.03 2112.51 1459.03 Q2115.38 1459.03 2117.42 1460.16 Q2119.48 1461.27 2120.82 1463.59 M2106.31 1472.64 Q2106.31 1477.34 2108.23 1480.02 Q2110.17 1482.69 2113.55 1482.69 Q2116.93 1482.69 2118.88 1480.02 Q2120.82 1477.34 2120.82 1472.64 Q2120.82 1467.94 2118.88 1465.28 Q2116.93 1462.59 2113.55 1462.59 Q2110.17 1462.59 2108.23 1465.28 Q2106.31 1467.94 2106.31 1472.64 Z" fill="#000000" fill-rule="nonzero" fill-opacity="1"></path><path clip-path="url(#clip590)" d="M2156.03 1471.55 L2156.03 1473.64 L2136.45 1473.64 Q2136.72 1478.03 2139.08 1480.35 Q2141.47 1482.64 2145.71 1482.64 Q2148.16 1482.64 2150.45 1482.04 Q2152.77 1481.44 2155.03 1480.23 L2155.03 1484.26 Q2152.74 1485.23 2150.33 1485.74 Q2147.93 1486.25 2145.45 1486.25 Q2139.25 1486.25 2135.61 1482.64 Q2132 1479.03 2132 1472.87 Q2132 1466.51 2135.43 1462.78 Q2138.88 1459.03 2144.71 1459.03 Q2149.94 1459.03 2152.97 1462.41 Q2156.03 1465.77 2156.03 1471.55 M2151.77 1470.3 Q2151.72 1466.81 2149.8 1464.72 Q2147.9 1462.64 2144.76 1462.64 Q2141.19 1462.64 2139.04 1464.65 Q2136.91 1466.67 2136.58 1470.33 L2151.77 1470.3 Z" fill="#000000" fill-rule="nonzero" fill-opacity="1"></path><path clip-path="url(#clip590)" d="M2184.57 1469.93 L2184.57 1485.58 L2180.31 1485.58 L2180.31 1470.07 Q2180.31 1466.39 2178.88 1464.56 Q2177.44 1462.73 2174.57 1462.73 Q2171.12 1462.73 2169.13 1464.93 Q2167.14 1467.13 2167.14 1470.93 L2167.14 1485.58 L2162.86 1485.58 L2162.86 1459.65 L2167.14 1459.65 L2167.14 1463.68 Q2168.67 1461.34 2170.73 1460.19 Q2172.81 1459.03 2175.52 1459.03 Q2179.99 1459.03 2182.28 1461.81 Q2184.57 1464.56 2184.57 1469.93 Z" fill="#000000" fill-rule="nonzero" fill-opacity="1"></path><path clip-path="url(#clip590)" d="M2211.72 1460.65 L2211.72 1464.63 Q2209.92 1463.64 2208.09 1463.15 Q2206.28 1462.64 2204.43 1462.64 Q2200.29 1462.64 2198 1465.28 Q2195.71 1467.89 2195.71 1472.64 Q2195.71 1477.39 2198 1480.02 Q2200.29 1482.64 2204.43 1482.64 Q2206.28 1482.64 2208.09 1482.15 Q2209.92 1481.64 2211.72 1480.65 L2211.72 1484.58 Q2209.94 1485.42 2208.02 1485.83 Q2206.12 1486.25 2203.97 1486.25 Q2198.11 1486.25 2194.66 1482.57 Q2191.21 1478.89 2191.21 1472.64 Q2191.21 1466.3 2194.69 1462.66 Q2198.18 1459.03 2204.25 1459.03 Q2206.21 1459.03 2208.09 1459.45 Q2209.96 1459.84 2211.72 1460.65 Z" fill="#000000" fill-rule="nonzero" fill-opacity="1"></path><path clip-path="url(#clip590)" d="M2241.31 1471.55 L2241.31 1473.64 L2221.72 1473.64 Q2222 1478.03 2224.36 1480.35 Q2226.75 1482.64 2230.98 1482.64 Q2233.44 1482.64 2235.73 1482.04 Q2238.04 1481.44 2240.31 1480.23 L2240.31 1484.26 Q2238.02 1485.23 2235.61 1485.74 Q2233.2 1486.25 2230.73 1486.25 Q2224.52 1486.25 2220.89 1482.64 Q2217.28 1479.03 2217.28 1472.87 Q2217.28 1466.51 2220.7 1462.78 Q2224.15 1459.03 2229.99 1459.03 Q2235.22 1459.03 2238.25 1462.41 Q2241.31 1465.77 2241.31 1471.55 M2237.05 1470.3 Q2237 1466.81 2235.08 1464.72 Q2233.18 1462.64 2230.03 1462.64 Q2226.47 1462.64 2224.32 1464.65 Q2222.19 1466.67 2221.86 1470.33 L2237.05 1470.3 Z" fill="#000000" fill-rule="nonzero" fill-opacity="1"></path><path clip-path="url(#clip590)" d="M2264.83 1460.42 L2264.83 1464.45 Q2263.02 1463.52 2261.08 1463.06 Q2259.13 1462.59 2257.05 1462.59 Q2253.88 1462.59 2252.28 1463.57 Q2250.7 1464.54 2250.7 1466.48 Q2250.7 1467.96 2251.84 1468.82 Q2252.97 1469.65 2256.4 1470.42 L2257.86 1470.74 Q2262.39 1471.71 2264.29 1473.5 Q2266.21 1475.26 2266.21 1478.43 Q2266.21 1482.04 2263.34 1484.14 Q2260.5 1486.25 2255.5 1486.25 Q2253.41 1486.25 2251.14 1485.83 Q2248.9 1485.44 2246.4 1484.63 L2246.4 1480.23 Q2248.76 1481.46 2251.05 1482.08 Q2253.34 1482.69 2255.59 1482.69 Q2258.6 1482.69 2260.22 1481.67 Q2261.84 1480.63 2261.84 1478.75 Q2261.84 1477.02 2260.66 1476.09 Q2259.5 1475.16 2255.54 1474.31 L2254.06 1473.96 Q2250.1 1473.13 2248.34 1471.41 Q2246.58 1469.68 2246.58 1466.67 Q2246.58 1463.01 2249.18 1461.02 Q2251.77 1459.03 2256.54 1459.03 Q2258.9 1459.03 2260.98 1459.38 Q2263.07 1459.72 2264.83 1460.42 Z" fill="#000000" fill-rule="nonzero" fill-opacity="1"></path><path clip-path="url(#clip590)" d="M1164.47 1533.76 L1164.47 1539.24 Q1161.99 1537.87 1159.47 1537.2 Q1156.99 1536.5 1154.44 1536.5 Q1148.75 1536.5 1145.59 1540.13 Q1142.44 1543.73 1142.44 1550.25 Q1142.44 1556.78 1145.59 1560.4 Q1148.75 1564 1154.44 1564 Q1156.99 1564 1159.47 1563.33 Q1161.99 1562.63 1164.47 1561.26 L1164.47 1566.68 Q1162.02 1567.82 1159.38 1568.39 Q1156.77 1568.97 1153.81 1568.97 Q1145.75 1568.97 1141.01 1563.91 Q1136.27 1558.85 1136.27 1550.25 Q1136.27 1541.53 1141.04 1536.53 Q1145.85 1531.54 1154.19 1531.54 Q1156.89 1531.54 1159.47 1532.11 Q1162.05 1532.65 1164.47 1533.76 Z" fill="#000000" fill-rule="nonzero" fill-opacity="1"></path><path clip-path="url(#clip590)" d="M1204.29 1546.53 L1204.29 1568.04 L1198.43 1568.04 L1198.43 1546.72 Q1198.43 1541.66 1196.46 1539.14 Q1194.48 1536.63 1190.54 1536.63 Q1185.79 1536.63 1183.06 1539.65 Q1180.32 1542.68 1180.32 1547.9 L1180.32 1568.04 L1174.43 1568.04 L1174.43 1518.52 L1180.32 1518.52 L1180.32 1537.93 Q1182.42 1534.72 1185.25 1533.13 Q1188.12 1531.54 1191.84 1531.54 Q1197.98 1531.54 1201.14 1535.36 Q1204.29 1539.14 1204.29 1546.53 Z" fill="#000000" fill-rule="nonzero" fill-opacity="1"></path><path clip-path="url(#clip590)" d="M1232.17 1550.12 Q1225.07 1550.12 1222.33 1551.75 Q1219.6 1553.37 1219.6 1557.29 Q1219.6 1560.4 1221.63 1562.25 Q1223.7 1564.07 1227.23 1564.07 Q1232.1 1564.07 1235.03 1560.63 Q1237.99 1557.16 1237.99 1551.43 L1237.99 1550.12 L1232.17 1550.12 M1243.85 1547.71 L1243.85 1568.04 L1237.99 1568.04 L1237.99 1562.63 Q1235.99 1565.88 1233 1567.44 Q1230 1568.97 1225.67 1568.97 Q1220.2 1568.97 1216.95 1565.91 Q1213.74 1562.82 1213.74 1557.67 Q1213.74 1551.65 1217.75 1548.6 Q1221.79 1545.54 1229.78 1545.54 L1237.99 1545.54 L1237.99 1544.97 Q1237.99 1540.93 1235.32 1538.73 Q1232.68 1536.5 1227.87 1536.5 Q1224.82 1536.5 1221.92 1537.23 Q1219.02 1537.97 1216.35 1539.43 L1216.35 1534.02 Q1219.56 1532.78 1222.59 1532.17 Q1225.61 1531.54 1228.48 1531.54 Q1236.21 1531.54 1240.03 1535.55 Q1243.85 1539.56 1243.85 1547.71 Z" fill="#000000" fill-rule="nonzero" fill-opacity="1"></path><path clip-path="url(#clip590)" d="M1276.57 1537.87 Q1275.58 1537.3 1274.4 1537.04 Q1273.26 1536.76 1271.86 1536.76 Q1266.89 1536.76 1264.22 1540 Q1261.58 1543.22 1261.58 1549.27 L1261.58 1568.04 L1255.69 1568.04 L1255.69 1532.4 L1261.58 1532.4 L1261.58 1537.93 Q1263.42 1534.69 1266.38 1533.13 Q1269.34 1531.54 1273.58 1531.54 Q1274.18 1531.54 1274.91 1531.63 Q1275.65 1531.7 1276.54 1531.85 L1276.57 1537.87 Z" fill="#000000" fill-rule="nonzero" fill-opacity="1"></path><path clip-path="url(#clip590)" d="M1288.5 1522.27 L1288.5 1532.4 L1300.57 1532.4 L1300.57 1536.95 L1288.5 1536.95 L1288.5 1556.3 Q1288.5 1560.66 1289.68 1561.9 Q1290.89 1563.14 1294.55 1563.14 L1300.57 1563.14 L1300.57 1568.04 L1294.55 1568.04 Q1287.77 1568.04 1285.19 1565.53 Q1282.62 1562.98 1282.62 1556.3 L1282.62 1536.95 L1278.32 1536.95 L1278.32 1532.4 L1282.62 1532.4 L1282.62 1522.27 L1288.5 1522.27 Z" fill="#000000" fill-rule="nonzero" fill-opacity="1"></path><path clip-path="url(#clip590)" d="M1323.1 1571.35 Q1320.62 1577.72 1318.26 1579.66 Q1315.91 1581.6 1311.96 1581.6 L1307.28 1581.6 L1307.28 1576.7 L1310.72 1576.7 Q1313.14 1576.7 1314.48 1575.56 Q1315.81 1574.41 1317.44 1570.14 L1318.49 1567.47 L1304.07 1532.4 L1310.28 1532.4 L1321.42 1560.28 L1332.56 1532.4 L1338.76 1532.4 L1323.1 1571.35 Z" fill="#000000" fill-rule="nonzero" fill-opacity="1"></path><path clip-path="url(#clip590)" d="M1352.51 1562.7 L1352.51 1581.6 L1346.62 1581.6 L1346.62 1532.4 L1352.51 1532.4 L1352.51 1537.81 Q1354.36 1534.62 1357.16 1533.1 Q1359.99 1531.54 1363.91 1531.54 Q1370.4 1531.54 1374.44 1536.69 Q1378.52 1541.85 1378.52 1550.25 Q1378.52 1558.65 1374.44 1563.81 Q1370.4 1568.97 1363.91 1568.97 Q1359.99 1568.97 1357.16 1567.44 Q1354.36 1565.88 1352.51 1562.7 M1372.44 1550.25 Q1372.44 1543.79 1369.76 1540.13 Q1367.12 1536.44 1362.47 1536.44 Q1357.83 1536.44 1355.15 1540.13 Q1352.51 1543.79 1352.51 1550.25 Q1352.51 1556.71 1355.15 1560.4 Q1357.83 1564.07 1362.47 1564.07 Q1367.12 1564.07 1369.76 1560.4 Q1372.44 1556.71 1372.44 1550.25 Z" fill="#000000" fill-rule="nonzero" fill-opacity="1"></path><path clip-path="url(#clip590)" d="M1418.71 1548.76 L1418.71 1551.62 L1391.79 1551.62 Q1392.17 1557.67 1395.42 1560.85 Q1398.69 1564 1404.52 1564 Q1407.89 1564 1411.04 1563.17 Q1414.23 1562.35 1417.35 1560.69 L1417.35 1566.23 Q1414.2 1567.57 1410.89 1568.27 Q1407.57 1568.97 1404.17 1568.97 Q1395.64 1568.97 1390.64 1564 Q1385.68 1559.04 1385.68 1550.57 Q1385.68 1541.82 1390.39 1536.69 Q1395.13 1531.54 1403.15 1531.54 Q1410.34 1531.54 1414.51 1536.18 Q1418.71 1540.8 1418.71 1548.76 M1412.86 1547.04 Q1412.79 1542.23 1410.15 1539.37 Q1407.54 1536.5 1403.21 1536.5 Q1398.31 1536.5 1395.35 1539.27 Q1392.42 1542.04 1391.98 1547.07 L1412.86 1547.04 Z" fill="#000000" fill-rule="nonzero" fill-opacity="1"></path><polyline clip-path="url(#clip592)" style="stroke:#000000; stroke-linecap:round; stroke-linejoin:round; stroke-width:2; stroke-opacity:0.1; fill:none" points="202.227,1414.46 2352.76,1414.46 "></polyline>
<polyline clip-path="url(#clip592)" style="stroke:#000000; stroke-linecap:round; stroke-linejoin:round; stroke-width:2; stroke-opacity:0.1; fill:none" points="202.227,985.056 2352.76,985.056 "></polyline>
<polyline clip-path="url(#clip592)" style="stroke:#000000; stroke-linecap:round; stroke-linejoin:round; stroke-width:2; stroke-opacity:0.1; fill:none" points="202.227,555.65 2352.76,555.65 "></polyline>
<polyline clip-path="url(#clip592)" style="stroke:#000000; stroke-linecap:round; stroke-linejoin:round; stroke-width:2; stroke-opacity:0.1; fill:none" points="202.227,126.245 2352.76,126.245 "></polyline>
<polyline clip-path="url(#clip590)" style="stroke:#000000; stroke-linecap:round; stroke-linejoin:round; stroke-width:4; stroke-opacity:1; fill:none" points="202.227,1423.18 202.227,123.472 "></polyline>
<polyline clip-path="url(#clip590)" style="stroke:#000000; stroke-linecap:round; stroke-linejoin:round; stroke-width:4; stroke-opacity:1; fill:none" points="202.227,1414.46 221.125,1414.46 "></polyline>
<polyline clip-path="url(#clip590)" style="stroke:#000000; stroke-linecap:round; stroke-linejoin:round; stroke-width:4; stroke-opacity:1; fill:none" points="202.227,985.056 221.125,985.056 "></polyline>
<polyline clip-path="url(#clip590)" style="stroke:#000000; stroke-linecap:round; stroke-linejoin:round; stroke-width:4; stroke-opacity:1; fill:none" points="202.227,555.65 221.125,555.65 "></polyline>
<polyline clip-path="url(#clip590)" style="stroke:#000000; stroke-linecap:round; stroke-linejoin:round; stroke-width:4; stroke-opacity:1; fill:none" points="202.227,126.245 221.125,126.245 "></polyline>
<path clip-path="url(#clip590)" d="M154.283 1400.26 Q150.672 1400.26 148.843 1403.82 Q147.038 1407.37 147.038 1414.5 Q147.038 1421.6 148.843 1425.17 Q150.672 1428.71 154.283 1428.71 Q157.917 1428.71 159.723 1425.17 Q161.552 1421.6 161.552 1414.5 Q161.552 1407.37 159.723 1403.82 Q157.917 1400.26 154.283 1400.26 M154.283 1396.56 Q160.093 1396.56 163.149 1401.16 Q166.227 1405.75 166.227 1414.5 Q166.227 1423.22 163.149 1427.83 Q160.093 1432.41 154.283 1432.41 Q148.473 1432.41 145.394 1427.83 Q142.339 1423.22 142.339 1414.5 Q142.339 1405.75 145.394 1401.16 Q148.473 1396.56 154.283 1396.56 Z" fill="#000000" fill-rule="nonzero" fill-opacity="1"></path><path clip-path="url(#clip590)" d="M145.325 967.776 L163.681 967.776 L163.681 971.711 L149.607 971.711 L149.607 980.183 Q150.626 979.836 151.644 979.674 Q152.663 979.489 153.681 979.489 Q159.468 979.489 162.848 982.66 Q166.227 985.831 166.227 991.248 Q166.227 996.826 162.755 999.928 Q159.283 1003.01 152.964 1003.01 Q150.788 1003.01 148.519 1002.64 Q146.274 1002.27 143.866 1001.53 L143.866 996.826 Q145.95 997.961 148.172 998.516 Q150.394 999.072 152.871 999.072 Q156.876 999.072 159.214 996.965 Q161.552 994.859 161.552 991.248 Q161.552 987.637 159.214 985.53 Q156.876 983.424 152.871 983.424 Q150.996 983.424 149.121 983.84 Q147.269 984.257 145.325 985.137 L145.325 967.776 Z" fill="#000000" fill-rule="nonzero" fill-opacity="1"></path><path clip-path="url(#clip590)" d="M114.931 568.995 L122.57 568.995 L122.57 542.63 L114.26 544.296 L114.26 540.037 L122.524 538.37 L127.2 538.37 L127.2 568.995 L134.839 568.995 L134.839 572.93 L114.931 572.93 L114.931 568.995 Z" fill="#000000" fill-rule="nonzero" fill-opacity="1"></path><path clip-path="url(#clip590)" d="M154.283 541.449 Q150.672 541.449 148.843 545.014 Q147.038 548.555 147.038 555.685 Q147.038 562.791 148.843 566.356 Q150.672 569.898 154.283 569.898 Q157.917 569.898 159.723 566.356 Q161.552 562.791 161.552 555.685 Q161.552 548.555 159.723 545.014 Q157.917 541.449 154.283 541.449 M154.283 537.745 Q160.093 537.745 163.149 542.352 Q166.227 546.935 166.227 555.685 Q166.227 564.412 163.149 569.018 Q160.093 573.602 154.283 573.602 Q148.473 573.602 145.394 569.018 Q142.339 564.412 142.339 555.685 Q142.339 546.935 145.394 542.352 Q148.473 537.745 154.283 537.745 Z" fill="#000000" fill-rule="nonzero" fill-opacity="1"></path><path clip-path="url(#clip590)" d="M115.927 139.59 L123.566 139.59 L123.566 113.224 L115.256 114.891 L115.256 110.632 L123.519 108.965 L128.195 108.965 L128.195 139.59 L135.834 139.59 L135.834 143.525 L115.927 143.525 L115.927 139.59 Z" fill="#000000" fill-rule="nonzero" fill-opacity="1"></path><path clip-path="url(#clip590)" d="M145.325 108.965 L163.681 108.965 L163.681 112.9 L149.607 112.9 L149.607 121.372 Q150.626 121.025 151.644 120.863 Q152.663 120.678 153.681 120.678 Q159.468 120.678 162.848 123.849 Q166.227 127.02 166.227 132.437 Q166.227 138.016 162.755 141.118 Q159.283 144.196 152.964 144.196 Q150.788 144.196 148.519 143.826 Q146.274 143.456 143.866 142.715 L143.866 138.016 Q145.95 139.15 148.172 139.706 Q150.394 140.261 152.871 140.261 Q156.876 140.261 159.214 138.155 Q161.552 136.048 161.552 132.437 Q161.552 128.826 159.214 126.72 Q156.876 124.613 152.871 124.613 Q150.996 124.613 149.121 125.03 Q147.269 125.446 145.325 126.326 L145.325 108.965 Z" fill="#000000" fill-rule="nonzero" fill-opacity="1"></path><path clip-path="url(#clip590)" d="M46.0847 840.325 Q46.0847 847.423 47.7079 850.16 Q49.3312 852.897 53.2461 852.897 Q56.3653 852.897 58.2114 850.86 Q60.0256 848.791 60.0256 845.258 Q60.0256 840.389 56.5881 837.46 Q53.1188 834.5 47.3897 834.5 L46.0847 834.5 L46.0847 840.325 M43.6657 828.644 L64.0042 828.644 L64.0042 834.5 L58.5933 834.5 Q61.8398 836.506 63.3994 839.498 Q64.9272 842.489 64.9272 846.818 Q64.9272 852.293 61.8716 855.539 Q58.7843 858.754 53.6281 858.754 Q47.6125 858.754 44.5569 854.743 Q41.5014 850.701 41.5014 842.712 L41.5014 834.5 L40.9285 834.5 Q36.8862 834.5 34.6901 837.174 Q32.4621 839.816 32.4621 844.622 Q32.4621 847.677 33.1941 850.574 Q33.9262 853.47 35.3903 856.144 L29.9795 856.144 Q28.7381 852.929 28.1334 849.905 Q27.4968 846.882 27.4968 844.017 Q27.4968 836.283 31.5072 832.463 Q35.5176 828.644 43.6657 828.644 Z" fill="#000000" fill-rule="nonzero" fill-opacity="1"></path><path clip-path="url(#clip590)" d="M14.479 816.581 L14.479 810.725 L64.0042 810.725 L64.0042 816.581 L14.479 816.581 Z" fill="#000000" fill-rule="nonzero" fill-opacity="1"></path><path clip-path="url(#clip590)" d="M58.657 792.805 L77.5631 792.805 L77.5631 798.693 L28.3562 798.693 L28.3562 792.805 L33.7671 792.805 Q30.5842 790.959 29.0564 788.158 Q27.4968 785.325 27.4968 781.41 Q27.4968 774.917 32.6531 770.875 Q37.8093 766.801 46.212 766.801 Q54.6147 766.801 59.771 770.875 Q64.9272 774.917 64.9272 781.41 Q64.9272 785.325 63.3994 788.158 Q61.8398 790.959 58.657 792.805 M46.212 772.88 Q39.7508 772.88 36.0905 775.554 Q32.3984 778.196 32.3984 782.843 Q32.3984 787.49 36.0905 790.163 Q39.7508 792.805 46.212 792.805 Q52.6732 792.805 56.3653 790.163 Q60.0256 787.49 60.0256 782.843 Q60.0256 778.196 56.3653 775.554 Q52.6732 772.88 46.212 772.88 Z" fill="#000000" fill-rule="nonzero" fill-opacity="1"></path><path clip-path="url(#clip590)" d="M42.4881 727.461 L64.0042 727.461 L64.0042 733.318 L42.679 733.318 Q37.6183 733.318 35.1038 735.291 Q32.5894 737.264 32.5894 741.211 Q32.5894 745.953 35.6131 748.691 Q38.6368 751.428 43.8567 751.428 L64.0042 751.428 L64.0042 757.316 L14.479 757.316 L14.479 751.428 L33.8944 751.428 Q30.6797 749.327 29.0883 746.495 Q27.4968 743.63 27.4968 739.906 Q27.4968 733.763 31.3163 730.612 Q35.1038 727.461 42.4881 727.461 Z" fill="#000000" fill-rule="nonzero" fill-opacity="1"></path><path clip-path="url(#clip590)" d="M46.0847 699.579 Q46.0847 706.677 47.7079 709.414 Q49.3312 712.152 53.2461 712.152 Q56.3653 712.152 58.2114 710.115 Q60.0256 708.046 60.0256 704.513 Q60.0256 699.643 56.5881 696.715 Q53.1188 693.755 47.3897 693.755 L46.0847 693.755 L46.0847 699.579 M43.6657 687.898 L64.0042 687.898 L64.0042 693.755 L58.5933 693.755 Q61.8398 695.76 63.3994 698.752 Q64.9272 701.744 64.9272 706.072 Q64.9272 711.547 61.8716 714.793 Q58.7843 718.008 53.6281 718.008 Q47.6125 718.008 44.5569 713.998 Q41.5014 709.955 41.5014 701.966 L41.5014 693.755 L40.9285 693.755 Q36.8862 693.755 34.6901 696.428 Q32.4621 699.07 32.4621 703.876 Q32.4621 706.932 33.1941 709.828 Q33.9262 712.724 35.3903 715.398 L29.9795 715.398 Q28.7381 712.183 28.1334 709.16 Q27.4968 706.136 27.4968 703.271 Q27.4968 695.537 31.5072 691.718 Q35.5176 687.898 43.6657 687.898 Z" fill="#000000" fill-rule="nonzero" fill-opacity="1"></path><path clip-path="url(#clip590)" d="M982.019 18.8205 L982.019 41.5461 L992.308 41.5461 Q998.02 41.5461 1001.14 38.5889 Q1004.26 35.6318 1004.26 30.163 Q1004.26 24.7348 1001.14 21.7777 Q998.02 18.8205 992.308 18.8205 L982.019 18.8205 M973.836 12.096 L992.308 12.096 Q1002.48 12.096 1007.66 16.714 Q1012.89 21.2916 1012.89 30.163 Q1012.89 39.1155 1007.66 43.6931 Q1002.48 48.2706 992.308 48.2706 L982.019 48.2706 L982.019 72.576 L973.836 72.576 L973.836 12.096 Z" fill="#000000" fill-rule="nonzero" fill-opacity="1"></path><path clip-path="url(#clip590)" d="M1038.16 32.4315 Q1032.17 32.4315 1028.69 37.1306 Q1025.2 41.7891 1025.2 49.9314 Q1025.2 58.0738 1028.64 62.7728 Q1032.13 67.4314 1038.16 67.4314 Q1044.12 67.4314 1047.6 62.7323 Q1051.09 58.0333 1051.09 49.9314 Q1051.09 41.8701 1047.6 37.1711 Q1044.12 32.4315 1038.16 32.4315 M1038.16 26.1121 Q1047.89 26.1121 1053.44 32.4315 Q1058.99 38.7509 1058.99 49.9314 Q1058.99 61.0714 1053.44 67.4314 Q1047.89 73.7508 1038.16 73.7508 Q1028.4 73.7508 1022.85 67.4314 Q1017.34 61.0714 1017.34 49.9314 Q1017.34 38.7509 1022.85 32.4315 Q1028.4 26.1121 1038.16 26.1121 Z" fill="#000000" fill-rule="nonzero" fill-opacity="1"></path><path clip-path="url(#clip590)" d="M1100.26 28.5427 L1100.26 35.5912 Q1097.1 33.9709 1093.7 33.1607 Q1090.3 32.3505 1086.65 32.3505 Q1081.1 32.3505 1078.31 34.0519 Q1075.55 35.7533 1075.55 39.156 Q1075.55 41.7486 1077.54 43.2475 Q1079.52 44.7058 1085.52 46.0426 L1088.07 46.6097 Q1096.01 48.3111 1099.33 51.4303 Q1102.7 54.509 1102.7 60.0587 Q1102.7 66.3781 1097.67 70.0644 Q1092.69 73.7508 1083.94 73.7508 Q1080.29 73.7508 1076.32 73.0216 Q1072.39 72.3329 1068.02 70.9151 L1068.02 63.2184 Q1072.15 65.3654 1076.16 66.4591 Q1080.17 67.5124 1084.1 67.5124 Q1089.37 67.5124 1092.2 65.73 Q1095.04 63.9071 1095.04 60.6258 Q1095.04 57.5877 1092.97 55.9673 Q1090.95 54.3469 1084.02 52.8481 L1081.43 52.2405 Q1074.5 50.7821 1071.42 47.7845 Q1068.34 44.7463 1068.34 39.4801 Q1068.34 33.0797 1072.88 29.5959 Q1077.42 26.1121 1085.76 26.1121 Q1089.89 26.1121 1093.54 26.7198 Q1097.19 27.3274 1100.26 28.5427 Z" fill="#000000" fill-rule="nonzero" fill-opacity="1"></path><path clip-path="url(#clip590)" d="M1121.94 14.324 L1121.94 27.2059 L1137.29 27.2059 L1137.29 32.9987 L1121.94 32.9987 L1121.94 57.6282 Q1121.94 63.1779 1123.44 64.7578 Q1124.98 66.3376 1129.63 66.3376 L1137.29 66.3376 L1137.29 72.576 L1129.63 72.576 Q1121.01 72.576 1117.72 69.3758 Q1114.44 66.1351 1114.44 57.6282 L1114.44 32.9987 L1108.97 32.9987 L1108.97 27.2059 L1114.44 27.2059 L1114.44 14.324 L1121.94 14.324 Z" fill="#000000" fill-rule="nonzero" fill-opacity="1"></path><path clip-path="url(#clip590)" d="M1185.9 48.0275 L1185.9 51.6733 L1151.63 51.6733 Q1152.12 59.3701 1156.25 63.421 Q1160.42 67.4314 1167.83 67.4314 Q1172.13 67.4314 1176.14 66.3781 Q1180.19 65.3249 1184.16 63.2184 L1184.16 70.267 Q1180.15 71.9684 1175.94 72.8596 Q1171.72 73.7508 1167.39 73.7508 Q1156.53 73.7508 1150.17 67.4314 Q1143.85 61.1119 1143.85 50.3365 Q1143.85 39.1965 1149.85 32.6746 Q1155.88 26.1121 1166.09 26.1121 Q1175.25 26.1121 1180.55 32.0264 Q1185.9 37.9003 1185.9 48.0275 M1178.45 45.84 Q1178.37 39.7232 1175 36.0774 Q1171.68 32.4315 1166.17 32.4315 Q1159.93 32.4315 1156.17 35.9558 Q1152.44 39.4801 1151.87 45.8805 L1178.45 45.84 Z" fill="#000000" fill-rule="nonzero" fill-opacity="1"></path><path clip-path="url(#clip590)" d="M1224.42 34.1734 Q1223.17 33.4443 1221.67 33.1202 Q1220.21 32.7556 1218.43 32.7556 Q1212.11 32.7556 1208.71 36.8875 Q1205.35 40.9789 1205.35 48.6757 L1205.35 72.576 L1197.85 72.576 L1197.85 27.2059 L1205.35 27.2059 L1205.35 34.2544 Q1207.69 30.1225 1211.46 28.1376 Q1215.23 26.1121 1220.62 26.1121 Q1221.39 26.1121 1222.32 26.2337 Q1223.25 26.3147 1224.38 26.5172 L1224.42 34.1734 Z" fill="#000000" fill-rule="nonzero" fill-opacity="1"></path><path clip-path="url(#clip590)" d="M1232.24 27.2059 L1239.7 27.2059 L1239.7 72.576 L1232.24 72.576 L1232.24 27.2059 M1232.24 9.54393 L1239.7 9.54393 L1239.7 18.9825 L1232.24 18.9825 L1232.24 9.54393 Z" fill="#000000" fill-rule="nonzero" fill-opacity="1"></path><path clip-path="url(#clip590)" d="M1272.87 32.4315 Q1266.88 32.4315 1263.39 37.1306 Q1259.91 41.7891 1259.91 49.9314 Q1259.91 58.0738 1263.35 62.7728 Q1266.84 67.4314 1272.87 67.4314 Q1278.83 67.4314 1282.31 62.7323 Q1285.8 58.0333 1285.8 49.9314 Q1285.8 41.8701 1282.31 37.1711 Q1278.83 32.4315 1272.87 32.4315 M1272.87 26.1121 Q1282.6 26.1121 1288.15 32.4315 Q1293.7 38.7509 1293.7 49.9314 Q1293.7 61.0714 1288.15 67.4314 Q1282.6 73.7508 1272.87 73.7508 Q1263.11 73.7508 1257.56 67.4314 Q1252.05 61.0714 1252.05 49.9314 Q1252.05 38.7509 1257.56 32.4315 Q1263.11 26.1121 1272.87 26.1121 Z" fill="#000000" fill-rule="nonzero" fill-opacity="1"></path><path clip-path="url(#clip590)" d="M1332.34 34.1734 Q1331.09 33.4443 1329.59 33.1202 Q1328.13 32.7556 1326.35 32.7556 Q1320.03 32.7556 1316.62 36.8875 Q1313.26 40.9789 1313.26 48.6757 L1313.26 72.576 L1305.77 72.576 L1305.77 27.2059 L1313.26 27.2059 L1313.26 34.2544 Q1315.61 30.1225 1319.38 28.1376 Q1323.15 26.1121 1328.53 26.1121 Q1329.3 26.1121 1330.23 26.2337 Q1331.17 26.3147 1332.3 26.5172 L1332.34 34.1734 Z" fill="#000000" fill-rule="nonzero" fill-opacity="1"></path><path clip-path="url(#clip590)" d="M1387.15 49.7694 Q1378.12 49.7694 1374.63 51.8354 Q1371.15 53.9013 1371.15 58.8839 Q1371.15 62.8538 1373.74 65.2034 Q1376.37 67.5124 1380.87 67.5124 Q1387.07 67.5124 1390.8 63.1374 Q1394.56 58.7219 1394.56 51.4303 L1394.56 49.7694 L1387.15 49.7694 M1402.02 46.6907 L1402.02 72.576 L1394.56 72.576 L1394.56 65.6895 Q1392.01 69.8214 1388.2 71.8063 Q1384.4 73.7508 1378.89 73.7508 Q1371.92 73.7508 1367.79 69.8619 Q1363.69 65.9325 1363.69 59.3701 Q1363.69 51.7138 1368.8 47.825 Q1373.94 43.9361 1384.11 43.9361 L1394.56 43.9361 L1394.56 43.2069 Q1394.56 38.0623 1391.16 35.2672 Q1387.8 32.4315 1381.68 32.4315 Q1377.79 32.4315 1374.11 33.3632 Q1370.42 34.295 1367.02 36.1584 L1367.02 29.2718 Q1371.11 27.692 1374.96 26.9223 Q1378.8 26.1121 1382.45 26.1121 Q1392.29 26.1121 1397.16 31.2163 Q1402.02 36.3204 1402.02 46.6907 Z" fill="#000000" fill-rule="nonzero" fill-opacity="1"></path><path clip-path="url(#clip590)" d="M1417.37 9.54393 L1424.82 9.54393 L1424.82 72.576 L1417.37 72.576 L1417.37 9.54393 Z" fill="#000000" fill-rule="nonzero" fill-opacity="1"></path><path clip-path="url(#clip590)" d="M1447.63 65.7705 L1447.63 89.8329 L1440.14 89.8329 L1440.14 27.2059 L1447.63 27.2059 L1447.63 34.0924 Q1449.98 30.0415 1453.54 28.0971 Q1457.15 26.1121 1462.13 26.1121 Q1470.4 26.1121 1475.54 32.6746 Q1480.73 39.2371 1480.73 49.9314 Q1480.73 60.6258 1475.54 67.1883 Q1470.4 73.7508 1462.13 73.7508 Q1457.15 73.7508 1453.54 71.8063 Q1449.98 69.8214 1447.63 65.7705 M1472.99 49.9314 Q1472.99 41.7081 1469.59 37.0496 Q1466.22 32.3505 1460.31 32.3505 Q1454.39 32.3505 1450.99 37.0496 Q1447.63 41.7081 1447.63 49.9314 Q1447.63 58.1548 1450.99 62.8538 Q1454.39 67.5124 1460.31 67.5124 Q1466.22 67.5124 1469.59 62.8538 Q1472.99 58.1548 1472.99 49.9314 Z" fill="#000000" fill-rule="nonzero" fill-opacity="1"></path><path clip-path="url(#clip590)" d="M1530.79 45.1919 L1530.79 72.576 L1523.34 72.576 L1523.34 45.4349 Q1523.34 38.994 1520.83 35.7938 Q1518.32 32.5936 1513.29 32.5936 Q1507.26 32.5936 1503.78 36.4419 Q1500.29 40.2903 1500.29 46.9338 L1500.29 72.576 L1492.8 72.576 L1492.8 9.54393 L1500.29 9.54393 L1500.29 34.2544 Q1502.97 30.163 1506.57 28.1376 Q1510.22 26.1121 1514.96 26.1121 Q1522.77 26.1121 1526.78 30.9732 Q1530.79 35.7938 1530.79 45.1919 Z" fill="#000000" fill-rule="nonzero" fill-opacity="1"></path><path clip-path="url(#clip590)" d="M1566.28 49.7694 Q1557.25 49.7694 1553.76 51.8354 Q1550.28 53.9013 1550.28 58.8839 Q1550.28 62.8538 1552.87 65.2034 Q1555.51 67.5124 1560 67.5124 Q1566.2 67.5124 1569.93 63.1374 Q1573.69 58.7219 1573.69 51.4303 L1573.69 49.7694 L1566.28 49.7694 M1581.15 46.6907 L1581.15 72.576 L1573.69 72.576 L1573.69 65.6895 Q1571.14 69.8214 1567.33 71.8063 Q1563.53 73.7508 1558.02 73.7508 Q1551.05 73.7508 1546.92 69.8619 Q1542.83 65.9325 1542.83 59.3701 Q1542.83 51.7138 1547.93 47.825 Q1553.07 43.9361 1563.24 43.9361 L1573.69 43.9361 L1573.69 43.2069 Q1573.69 38.0623 1570.29 35.2672 Q1566.93 32.4315 1560.81 32.4315 Q1556.92 32.4315 1553.24 33.3632 Q1549.55 34.295 1546.15 36.1584 L1546.15 29.2718 Q1550.24 27.692 1554.09 26.9223 Q1557.94 26.1121 1561.58 26.1121 Q1571.43 26.1121 1576.29 31.2163 Q1581.15 36.3204 1581.15 46.6907 Z" fill="#000000" fill-rule="nonzero" fill-opacity="1"></path><path clip-path="url(#clip592)" d="M488.514 1347.92 L375.803 1347.92 L601.225 1347.92 L488.514 1347.92 L488.514 1316.86 L488.514 1347.92  Z" fill="#009af9" fill-rule="evenodd" fill-opacity="1"></path>
<polyline clip-path="url(#clip592)" style="stroke:#000000; stroke-linecap:round; stroke-linejoin:round; stroke-width:4; stroke-opacity:1; fill:none" points="488.514,1347.92 375.803,1347.92 601.225,1347.92 488.514,1347.92 488.514,1316.86 488.514,1347.92 "></polyline>
<path clip-path="url(#clip592)" d="M713.936 1316.86 L713.936 1264.68 L263.091 1264.68 L263.091 1316.86 L713.936 1316.86 L713.936 1264.68 L713.936 1316.86  Z" fill="#009af9" fill-rule="evenodd" fill-opacity="1"></path>
<polyline clip-path="url(#clip592)" style="stroke:#000000; stroke-linecap:round; stroke-linejoin:round; stroke-width:4; stroke-opacity:1; fill:none" points="713.936,1316.86 713.936,1264.68 263.091,1264.68 263.091,1316.86 713.936,1316.86 713.936,1264.68 713.936,1316.86 "></polyline>
<path clip-path="url(#clip592)" d="M713.936 1187.84 L263.091 1187.84 L263.091 1264.68 L713.936 1264.68 L713.936 1187.84 L488.514 1187.84 L713.936 1187.84  Z" fill="#009af9" fill-rule="evenodd" fill-opacity="1"></path>
<polyline clip-path="url(#clip592)" style="stroke:#000000; stroke-linecap:round; stroke-linejoin:round; stroke-width:4; stroke-opacity:1; fill:none" points="713.936,1187.84 263.091,1187.84 263.091,1264.68 713.936,1264.68 713.936,1187.84 488.514,1187.84 713.936,1187.84 "></polyline>
<path clip-path="url(#clip592)" d="M488.514 1036.42 L375.803 1036.42 L601.225 1036.42 L488.514 1036.42 L488.514 1187.84 L488.514 1036.42  Z" fill="#009af9" fill-rule="evenodd" fill-opacity="1"></path>
<polyline clip-path="url(#clip592)" style="stroke:#000000; stroke-linecap:round; stroke-linejoin:round; stroke-width:4; stroke-opacity:1; fill:none" points="488.514,1036.42 375.803,1036.42 601.225,1036.42 488.514,1036.42 488.514,1187.84 488.514,1036.42 "></polyline>
<polyline clip-path="url(#clip592)" style="stroke:#009af9; stroke-linecap:round; stroke-linejoin:round; stroke-width:0; stroke-opacity:1; fill:none" points="488.514,1347.92 375.803,1347.92 601.225,1347.92 488.514,1347.92 488.514,1316.86 "></polyline>
<polyline clip-path="url(#clip592)" style="stroke:#009af9; stroke-linecap:round; stroke-linejoin:round; stroke-width:0; stroke-opacity:1; fill:none" points="713.936,1316.86 713.936,1264.68 263.091,1264.68 263.091,1316.86 713.936,1316.86 713.936,1264.68 "></polyline>
<polyline clip-path="url(#clip592)" style="stroke:#009af9; stroke-linecap:round; stroke-linejoin:round; stroke-width:0; stroke-opacity:1; fill:none" points="713.936,1187.84 263.091,1187.84 263.091,1264.68 713.936,1264.68 713.936,1187.84 488.514,1187.84 "></polyline>
<polyline clip-path="url(#clip592)" style="stroke:#009af9; stroke-linecap:round; stroke-linejoin:round; stroke-width:0; stroke-opacity:1; fill:none" points="488.514,1036.42 375.803,1036.42 601.225,1036.42 488.514,1036.42 488.514,1187.84 "></polyline>
<path clip-path="url(#clip592)" d="M1277.49 1386.4 L1164.78 1386.4 L1390.2 1386.4 L1277.49 1386.4 L1277.49 1371.67 L1277.49 1386.4  Z" fill="#e26f46" fill-rule="evenodd" fill-opacity="1"></path>
<polyline clip-path="url(#clip592)" style="stroke:#000000; stroke-linecap:round; stroke-linejoin:round; stroke-width:4; stroke-opacity:1; fill:none" points="1277.49,1386.4 1164.78,1386.4 1390.2,1386.4 1277.49,1386.4 1277.49,1371.67 1277.49,1386.4 "></polyline>
<path clip-path="url(#clip592)" d="M1502.91 1371.67 L1502.91 1345.49 L1052.07 1345.49 L1052.07 1371.67 L1502.91 1371.67 L1502.91 1345.49 L1502.91 1371.67  Z" fill="#e26f46" fill-rule="evenodd" fill-opacity="1"></path>
<polyline clip-path="url(#clip592)" style="stroke:#000000; stroke-linecap:round; stroke-linejoin:round; stroke-width:4; stroke-opacity:1; fill:none" points="1502.91,1371.67 1502.91,1345.49 1052.07,1345.49 1052.07,1371.67 1502.91,1371.67 1502.91,1345.49 1502.91,1371.67 "></polyline>
<path clip-path="url(#clip592)" d="M1502.91 1321.03 L1052.07 1321.03 L1052.07 1345.49 L1502.91 1345.49 L1502.91 1321.03 L1277.49 1321.03 L1502.91 1321.03  Z" fill="#e26f46" fill-rule="evenodd" fill-opacity="1"></path>
<polyline clip-path="url(#clip592)" style="stroke:#000000; stroke-linecap:round; stroke-linejoin:round; stroke-width:4; stroke-opacity:1; fill:none" points="1502.91,1321.03 1052.07,1321.03 1052.07,1345.49 1502.91,1345.49 1502.91,1321.03 1277.49,1321.03 1502.91,1321.03 "></polyline>
<path clip-path="url(#clip592)" d="M1277.49 1295.05 L1164.78 1295.05 L1390.2 1295.05 L1277.49 1295.05 L1277.49 1321.03 L1277.49 1295.05  Z" fill="#e26f46" fill-rule="evenodd" fill-opacity="1"></path>
<polyline clip-path="url(#clip592)" style="stroke:#000000; stroke-linecap:round; stroke-linejoin:round; stroke-width:4; stroke-opacity:1; fill:none" points="1277.49,1295.05 1164.78,1295.05 1390.2,1295.05 1277.49,1295.05 1277.49,1321.03 1277.49,1295.05 "></polyline>
<circle clip-path="url(#clip592)" cx="1277.49" cy="1156.26" r="14.4" fill="#e26f46" fill-rule="evenodd" fill-opacity="1" stroke="#000000" stroke-opacity="1" stroke-width="3.2"></circle>
<polyline clip-path="url(#clip592)" style="stroke:#e26f46; stroke-linecap:round; stroke-linejoin:round; stroke-width:0; stroke-opacity:1; fill:none" points="1277.49,1386.4 1164.78,1386.4 1390.2,1386.4 1277.49,1386.4 1277.49,1371.67 "></polyline>
<polyline clip-path="url(#clip592)" style="stroke:#e26f46; stroke-linecap:round; stroke-linejoin:round; stroke-width:0; stroke-opacity:1; fill:none" points="1502.91,1371.67 1502.91,1345.49 1052.07,1345.49 1052.07,1371.67 1502.91,1371.67 1502.91,1345.49 "></polyline>
<polyline clip-path="url(#clip592)" style="stroke:#e26f46; stroke-linecap:round; stroke-linejoin:round; stroke-width:0; stroke-opacity:1; fill:none" points="1502.91,1321.03 1052.07,1321.03 1052.07,1345.49 1502.91,1345.49 1502.91,1321.03 1277.49,1321.03 "></polyline>
<polyline clip-path="url(#clip592)" style="stroke:#e26f46; stroke-linecap:round; stroke-linejoin:round; stroke-width:0; stroke-opacity:1; fill:none" points="1277.49,1295.05 1164.78,1295.05 1390.2,1295.05 1277.49,1295.05 1277.49,1321.03 "></polyline>
<path clip-path="url(#clip592)" d="M2066.47 1323.21 L1953.76 1323.21 L2179.18 1323.21 L2066.47 1323.21 L2066.47 1217.56 L2066.47 1323.21  Z" fill="#3da44d" fill-rule="evenodd" fill-opacity="1"></path>
<polyline clip-path="url(#clip592)" style="stroke:#000000; stroke-linecap:round; stroke-linejoin:round; stroke-width:4; stroke-opacity:1; fill:none" points="2066.47,1323.21 1953.76,1323.21 2179.18,1323.21 2066.47,1323.21 2066.47,1217.56 2066.47,1323.21 "></polyline>
<path clip-path="url(#clip592)" d="M2291.89 1217.56 L2291.89 1158.85 L1841.05 1158.85 L1841.05 1217.56 L2291.89 1217.56 L2291.89 1158.85 L2291.89 1217.56  Z" fill="#3da44d" fill-rule="evenodd" fill-opacity="1"></path>
<polyline clip-path="url(#clip592)" style="stroke:#000000; stroke-linecap:round; stroke-linejoin:round; stroke-width:4; stroke-opacity:1; fill:none" points="2291.89,1217.56 2291.89,1158.85 1841.05,1158.85 1841.05,1217.56 2291.89,1217.56 2291.89,1158.85 2291.89,1217.56 "></polyline>
<path clip-path="url(#clip592)" d="M2291.89 959.834 L1841.05 959.834 L1841.05 1158.85 L2291.89 1158.85 L2291.89 959.834 L2066.47 959.834 L2291.89 959.834  Z" fill="#3da44d" fill-rule="evenodd" fill-opacity="1"></path>
<polyline clip-path="url(#clip592)" style="stroke:#000000; stroke-linecap:round; stroke-linejoin:round; stroke-width:4; stroke-opacity:1; fill:none" points="2291.89,959.834 1841.05,959.834 1841.05,1158.85 2291.89,1158.85 2291.89,959.834 2066.47,959.834 2291.89,959.834 "></polyline>
<path clip-path="url(#clip592)" d="M2066.47 624.59 L1953.76 624.59 L2179.18 624.59 L2066.47 624.59 L2066.47 959.834 L2066.47 624.59  Z" fill="#3da44d" fill-rule="evenodd" fill-opacity="1"></path>
<polyline clip-path="url(#clip592)" style="stroke:#000000; stroke-linecap:round; stroke-linejoin:round; stroke-width:4; stroke-opacity:1; fill:none" points="2066.47,624.59 1953.76,624.59 2179.18,624.59 2066.47,624.59 2066.47,959.834 2066.47,624.59 "></polyline>
<circle clip-path="url(#clip592)" cx="2066.47" cy="160.256" r="14.4" fill="#3da44d" fill-rule="evenodd" fill-opacity="1" stroke="#000000" stroke-opacity="1" stroke-width="3.2"></circle>
<polyline clip-path="url(#clip592)" style="stroke:#3da44d; stroke-linecap:round; stroke-linejoin:round; stroke-width:0; stroke-opacity:1; fill:none" points="2066.47,1323.21 1953.76,1323.21 2179.18,1323.21 2066.47,1323.21 2066.47,1217.56 "></polyline>
<polyline clip-path="url(#clip592)" style="stroke:#3da44d; stroke-linecap:round; stroke-linejoin:round; stroke-width:0; stroke-opacity:1; fill:none" points="2291.89,1217.56 2291.89,1158.85 1841.05,1158.85 1841.05,1217.56 2291.89,1217.56 2291.89,1158.85 "></polyline>
<polyline clip-path="url(#clip592)" style="stroke:#3da44d; stroke-linecap:round; stroke-linejoin:round; stroke-width:0; stroke-opacity:1; fill:none" points="2291.89,959.834 1841.05,959.834 1841.05,1158.85 2291.89,1158.85 2291.89,959.834 2066.47,959.834 "></polyline>
<polyline clip-path="url(#clip592)" style="stroke:#3da44d; stroke-linecap:round; stroke-linejoin:round; stroke-width:0; stroke-opacity:1; fill:none" points="2066.47,624.59 1953.76,624.59 2179.18,624.59 2066.47,624.59 2066.47,959.834 "></polyline>
</svg>